Comical documentary following Neil Delamere as he travels the country to meet experts, historians and St Patrick's Day revellers to discover the truth about the saint. He discovers St patrick is not as irish as the irish would like to believe!


File Info:
Complete name                            : Theres Something About (St.) Patrick [RTE Ireland] HQ PDTV x264 AC3 DeViL303.mkv
Format                                   : Matroska
Format version                           : Version 1
File size                                : 563 MiB
Duration                                 : 52mn 32s
Overall bit rate mode                    : Variable
Overall bit rate                         : 1 497 Kbps
Encoded date                             : UTC 2013-03-15 00:09:12
Writing application                      : mkvmerge v2.5.3 ('Boogie') built on Mar  7 2009 15:00:41
Writing library                          : libebml v0.7.7 + libmatroska v0.8.1

Video
ID                                       : 1
Format                                   : AVC
Format/Info                              : Advanced Video Codec
Format profile                           : High@L3.0
Format settings, CABAC                   : Yes
Format settings, ReFrames                : 3 frames
Codec ID                                 : V_MPEG4/ISO/AVC
Duration                                 : 52mn 32s
Bit rate mode                            : Variable
Bit rate                                 : 1 303 Kbps
Maximum bit rate                         : 12.0 Mbps
Width                                    : 720 pixels
Height                                   : 576 pixels
Display aspect ratio                     : 16:9
Original display aspect ratio            : 5:4
Frame rate mode                          : Constant
Frame rate                               : 25.000 fps
Standard                                 : PAL
Color space                              : YUV
Chroma subsampling                       : 4:2:0
Bit depth                                : 8 bits
Scan type                                : Progressive
Bits/(Pixel*Frame)                       : 0.126
Stream size                              : 479 MiB (85%)
Writing library                          : x264 core 93 r1542M 5b86182
Encoding settings                        : cabac=1 / ref=3 / deblock=1:-1:-1 / 
Default                                  : Yes
Forced                                   : No

Audio
ID                                       : 2
Format                                   : AC-3
Format/Info                              : Audio Coding 3
Mode extension                           : CM (complete main)
Format settings, Endianness              : Big
Codec ID                                 : A_AC3
Duration                                 : 52mn 32s
Bit rate mode                            : Constant
Bit rate                                 : 192 Kbps
Channel(s)                               : 2 channels
Channel positions                        : Front: L R
Sampling rate                            : 48.0 KHz
Bit depth                                : 16 bits
Compression mode                         : Lossy
Stream size                              : 72.1 MiB (13%)
Default                                  : Yes
Forced                                   : No

Text
ID                                       : 3
Format                                   : SSA
Codec ID                                 : S_TEXT/SSA
Codec ID/Info                            : Sub Station Alpha
Compression mode                         : Lossless
Default                                  : Yes
Forced                                   : No

Menu
00:00:00.000                             : en:Chapter 1n[00:00:00]
00:04:46.541                             : en:Chapter 2n[00:04:46]
00:09:33.083                             : en:Chapter 3n[00:09:33]
00:14:19.625                             : en:Chapter 4n[00:14:19]
00:19:06.167                             : en:Chapter 5n[00:19:06]
00:23:52.709                             : en:Chapter 6n[00:23:52]
00:28:39.250                             : en:Chapter 7n[00:28:39]
00:33:25.792                             : en:Chapter 8n[00:33:25]
00:38:12.334                             : en:Chapter 9n[00:38:12]
00:42:58.876                             : en:Chapter 10n[00:42:58]
00:47:45.418                             : en:Chapter 11n[00:47:45]
00:52:29.959                             : en:Chapter 12n[00:52:29]


